<?xml version="1.0" encoding="utf-8"?>
<!-- Generator: Adobe Illustrator 16.0.3, SVG Export Plug-In . SVG Version: 6.00 Build 0)  -->
<!DOCTYPE svg PUBLIC "-//W3C//DTD SVG 1.1//EN" "http://www.w3.org/Graphics/SVG/1.1/DTD/svg11.dtd">
<svg version="1.1" id="Layer_1" xmlns="http://www.w3.org/2000/svg" xmlns:xlink="http://www.w3.org/1999/xlink" x="0px" y="0px"
	  height="100%" width="100%"   viewBox="0 0 1023.412 133.024" enable-background="new 0 0 1023.412 133.024" preserveAspectRatio="xMinYMin meet"
	 xml:space="preserve">
<g>
	<g>
		<path fill-rule="evenodd" clip-rule="evenodd" fill="#ED1C24" d="M125.701,114.251c0,0-0.503-18.9-0.503-20.887
			c0-1.991,1.514-2.486,3.526-1.991c2.018,0.495,19.664,3.978,19.664,3.978s-1.512-3.978-2.521-6.465
			c-1.006-2.977,0.506-3.478,1.009-3.973C147.379,84.408,166.542,68,166.542,68l-3.026-1.491c-2.017-0.993-1.509-2.484-1.008-3.48
			c0-0.996,3.026-11.935,3.026-11.935s-8.07,1.489-10.084,1.989c-1.514,0-2.018-0.5-2.521-1.494
			c-0.506-0.993-2.523-5.967-2.523-5.967s-10.082,10.941-10.082,11.437c-2.018,1.494-4.038,0.5-3.529-1.491
			c0-1.989,5.041-24.367,5.041-24.367s-5.549,3.48-7.059,4.476c-2.017,0.996-2.521,0.996-3.529-0.996
			c-1.008-1.491-7.561-14.919-7.561-14.919l0,0c0,0-7.061,13.428-7.564,14.919c-1.011,1.992-2.017,1.992-4.037,0.996
			c-1.509-0.996-7.056-4.476-7.056-4.476s5.044,22.377,5.044,24.367c0.503,1.992-1.515,2.985-3.026,1.491
			c-0.506-0.496-10.59-11.437-10.59-11.437s-2.017,4.974-2.521,5.967c-0.503,0.993-1.006,1.494-2.518,1.494
			c-2.02-0.5-10.59-1.989-10.59-1.989s3.526,10.938,4.035,11.935c0,0.996,0.503,2.487-1.514,3.48L80.324,68
			c0,0,19.158,16.408,19.661,16.914c0.506,0.495,2.018,0.996,1.009,3.973c-1.009,2.487-2.521,6.465-2.521,6.465
			s18.152-3.482,19.664-3.978c2.02-0.495,3.529,0,3.529,1.991c0,1.986-0.503,20.887-0.503,20.887H125.701L125.701,114.251z"/>
		<polygon fill-rule="evenodd" clip-rule="evenodd" fill="#ED1C24" points="68.142,122.713 68.142,11.311 12.19,11.311 
			12.19,122.713 68.142,122.713 		"/>
		<polygon fill-rule="evenodd" clip-rule="evenodd" fill="#ED1C24" points="234.758,122.713 234.758,11.311 178.807,11.311 
			178.807,122.713 234.758,122.713 		"/>
	</g>
	<path fill-rule="evenodd" clip-rule="evenodd" d="M746.011,25.99c-0.258-5.183-1.898-15.015-18.348-15.015
		c-11.413,0-16.212,7.213-16.212,14.555c0,8.199,6.955,10.363,10.041,11.081l9.644,2.231c7.724,1.832,10.03,3.405,10.03,8.325
		c0,6.754-7.739,7.933-12.332,7.933c-6.036,0-12.986-2.49-12.986-11.014h-5.96c0,4.394,0.79,8.325,4.783,11.932
		c2.09,1.904,5.506,4.536,14.23,4.536c8.064,0,18.431-3.093,18.431-14.238c0-7.474-4.603-11.147-10.691-12.587l-13.44-3.083
		c-2.75-0.66-5.583-1.968-5.583-5.97c0-7.146,6.759-8.26,10.753-8.26c5.31,0,11.346,2.296,11.666,9.574H746.011L746.011,25.99z
		 M767.258,29.792V25.01h-5.505v-9.576h-5.779v9.576h-4.648v4.783h4.648v22.62c0,4.13,1.254,7.353,6.956,7.353
		c0.593,0,2.233-0.258,4.328-0.467v-4.522h-2.027c-1.187,0-3.478,0-3.478-2.691V29.792H767.258L767.258,29.792z M778.011,35.432
		c0.388-2.626,1.306-6.623,7.869-6.623c5.443,0,8.069,1.966,8.069,5.573c0,3.411-1.641,3.939-3.028,4.066l-9.499,1.179
		c-9.576,1.184-10.428,7.869-10.428,10.755c0,5.897,4.458,9.909,10.752,9.909c6.692,0,10.17-3.158,12.395-5.585
		c0.19,2.626,0.985,5.258,6.099,5.258c1.305,0,2.161-0.392,3.142-0.666v-4.197c-0.645,0.131-1.372,0.266-1.898,0.266
		c-1.177,0-1.898-0.591-1.898-2.036V33.595c0-8.784-9.969-9.574-12.719-9.574c-8.467,0-13.905,3.217-14.169,11.411H778.011
		L778.011,35.432z M793.82,47.428c0,4.595-5.253,8.067-10.629,8.067c-4.324,0-6.228-2.229-6.228-5.967
		c0-4.326,4.52-5.18,7.342-5.572c7.146-0.921,8.596-1.445,9.515-2.162V47.428L793.82,47.428z M821.94,29.792V25.01h-5.506v-9.576
		h-5.763v9.576h-4.67v4.783h4.67v22.62c0,4.13,1.238,7.353,6.939,7.353c0.594,0,2.234-0.258,4.329-0.467v-4.522h-2.033
		c-1.171,0-3.473,0-3.473-2.691V29.792H821.94L821.94,29.792z M833.482,25.01h-5.764v34.299h5.764V25.01L833.482,25.01z
		 M833.482,18.777v-6.553h-5.764v6.553H833.482L833.482,18.777z M867.19,34.777c0-1.703-0.856-10.755-13.121-10.755
		c-6.749,0-12.977,3.408-12.977,10.949c0,4.721,3.143,7.149,7.936,8.331l6.682,1.636c4.923,1.249,6.821,2.164,6.821,4.922
		c0,3.803-3.746,5.438-7.868,5.438c-8.127,0-8.916-4.324-9.112-7.015h-5.582c0.206,4.13,1.191,12.009,14.756,12.009
		c7.734,0,13.57-4.272,13.57-11.351c0-4.657-2.492-7.28-9.639-9.05l-5.763-1.442c-4.458-1.115-6.229-1.77-6.229-4.592
		c0-4.259,5.052-4.848,6.821-4.848c7.275,0,8.064,3.602,8.132,5.769H867.19L867.19,34.777z M887.515,29.792V25.01h-5.5v-9.576
		h-5.779v9.576h-4.654v4.783h4.654v22.62c0,4.13,1.249,7.353,6.95,7.353c0.599,0,2.224-0.258,4.329-0.467v-4.522h-2.043
		c-1.177,0-3.457,0-3.457-2.691V29.792H887.515L887.515,29.792z M899.057,25.01h-5.778v34.299h5.778V25.01L899.057,25.01z
		 M899.057,18.777v-6.553h-5.778v6.553H899.057L899.057,18.777z M935.835,25.01h-5.434v4.85h-0.134
		c-1.378-1.966-4.004-5.838-10.231-5.838c-9.117,0-14.298,7.477-14.298,17.117c0,8.194,3.411,19.153,15.082,19.153
		c4.587,0,7.61-2.172,9.111-4.6h0.135v17.19h5.769V25.01L935.835,25.01z M930.329,43.757c0,9.115-5.706,11.54-9.38,11.54
		c-6.295,0-9.241-5.704-9.241-13.242c0-4.394,0.454-12.85,9.37-12.85C929.416,29.205,930.329,38.185,930.329,43.757L930.329,43.757z
		 M971.963,59.298V25.01h-5.764v18.879c0,4.982-2.172,11.408-9.447,11.408c-3.735,0-6.62-1.899-6.62-7.536V25.01h-5.778v24.65
		c0,8.196,6.099,10.631,11.155,10.631c5.505,0,8.456-2.108,10.882-6.109l0.129,0.134v4.982H971.963L971.963,59.298z
		 M1003.963,48.545c-0.19,2.559-3.4,6.751-8.854,6.751c-6.62,0-9.964-4.128-9.964-11.274h25.045
		c0-12.133-4.845-20.001-14.746-20.001c-11.346,0-16.465,8.459-16.465,19.083c0,9.899,5.712,17.187,15.34,17.187
		c5.521,0,7.739-1.318,9.318-2.368c4.329-2.884,5.897-7.74,6.099-9.378H1003.963L1003.963,48.545z M985.146,39.431
		c0-5.31,4.2-10.227,9.51-10.227c7.017,0,9.24,4.917,9.581,10.227H985.146L985.146,39.431z M750.871,88.536
		c-0.918-7.869-7.213-15.407-19.349-15.407c-13.699,0-21.97,10.03-21.97,24.519c0,18.096,10.494,25.066,21.181,25.066
		c3.539,0,17.966-0.795,20.592-18.575h-6.166c-2.161,10.949-9.308,12.925-13.44,12.925c-11.672,0-15.598-8.528-15.598-19.606
		c0-12.394,6.872-18.688,15.401-18.688c4.52,0,11.413,1.507,13.183,9.768H750.871L750.871,88.536z M763.394,97.585
		c0.387-2.621,1.306-6.625,7.858-6.625c5.454,0,8.064,1.971,8.064,5.583c0,3.405-1.625,3.921-3.014,4.056l-9.509,1.182
		c-9.566,1.181-10.417,7.863-10.417,10.752c0,5.897,4.457,9.912,10.747,9.912c6.687,0,10.165-3.158,12.398-5.583
		c0.191,2.621,0.985,5.253,6.084,5.253c1.32,0,2.177-0.387,3.157-0.666v-4.194c-0.66,0.129-1.383,0.258-1.898,0.258
		c-1.177,0-1.899-0.588-1.899-2.022V95.749c0-8.787-9.963-9.576-12.718-9.576c-8.468,0-13.905,3.22-14.169,11.413H763.394
		L763.394,97.585z M779.188,109.577c0,4.598-5.247,8.069-10.613,8.069c-4.329,0-6.243-2.224-6.243-5.964
		c0-4.324,4.53-5.181,7.357-5.573c7.146-0.923,8.58-1.444,9.499-2.167V109.577L779.188,109.577z M822.663,98.112
		c0-9.772-6.692-11.939-11.991-11.939c-5.908,0-9.128,4.004-10.366,5.841h-0.129v-4.86h-5.443v34.302h5.764v-18.688
		c0-9.318,5.778-11.408,9.05-11.408c5.645,0,7.342,3.008,7.342,8.982v21.114h5.774V98.112L822.663,98.112z M836.3,97.585
		c0.397-2.621,1.315-6.625,7.868-6.625c5.443,0,8.07,1.971,8.07,5.583c0,3.405-1.646,3.921-3.019,4.056l-9.51,1.182
		c-9.576,1.181-10.417,7.863-10.417,10.752c0,5.897,4.463,9.912,10.753,9.912c6.682,0,10.159-3.158,12.383-5.583
		c0.206,2.621,0.98,5.253,6.099,5.253c1.321,0,2.173-0.387,3.152-0.666v-4.194c-0.66,0.129-1.383,0.258-1.903,0.258
		c-1.182,0-1.904-0.588-1.904-2.022V95.749c0-8.787-9.968-9.576-12.719-9.576c-8.456,0-13.895,3.22-14.168,11.413H836.3
		L836.3,97.585z M852.104,109.577c0,4.598-5.247,8.069-10.623,8.069c-4.329,0-6.229-2.224-6.229-5.964
		c0-4.324,4.521-5.181,7.338-5.573c7.15-0.923,8.596-1.444,9.514-2.167V109.577L852.104,109.577z M896.095,74.377h-5.763v17.171
		l-0.129,0.465c-1.383-1.971-4.004-5.841-10.237-5.841c-9.112,0-14.292,7.481-14.292,17.109c0,8.204,3.41,19.163,15.082,19.163
		c3.348,0,7.279-1.058,9.771-5.717h0.129v4.727h5.438V74.377L896.095,74.377z M871.648,104.2c0-4.385,0.449-12.842,9.365-12.842
		c8.338,0,9.256,8.982,9.256,14.55c0,9.117-5.712,11.543-9.385,11.543C874.595,117.451,871.648,111.749,871.648,104.2L871.648,104.2
		z M909.216,97.585c0.388-2.621,1.306-6.625,7.874-6.625c5.438,0,8.06,1.971,8.06,5.583c0,3.405-1.642,3.921-3.023,4.056
		l-9.494,1.182c-9.581,1.181-10.433,7.863-10.433,10.752c0,5.897,4.458,9.912,10.752,9.912c6.692,0,10.17-3.158,12.394-5.583
		c0.191,2.621,0.98,5.253,6.1,5.253c1.305,0,2.156-0.387,3.142-0.666v-4.194c-0.66,0.129-1.367,0.258-1.903,0.258
		c-1.177,0-1.899-0.588-1.899-2.022V95.749c0-8.787-9.963-9.576-12.719-9.576c-8.461,0-13.899,3.22-14.157,11.413H909.216
		L909.216,97.585z M925.021,109.577c0,4.598-5.248,8.069-10.619,8.069c-4.334,0-6.232-2.224-6.232-5.964
		c0-4.324,4.524-5.181,7.342-5.573c7.142-0.923,8.591-1.444,9.51-2.167V109.577z"/>
	<path fill-rule="evenodd" clip-rule="evenodd" d="M380.057,25.99c-0.258-5.183-1.899-15.015-18.358-15.015
		c-11.405,0-16.193,7.213-16.193,14.555c0,8.199,6.95,10.363,10.036,11.081l9.636,2.231c7.739,1.832,10.03,3.405,10.03,8.325
		c0,6.754-7.74,7.933-12.321,7.933c-6.034,0-12.984-2.49-12.984-11.014h-5.97c0,4.394,0.79,8.325,4.788,11.932
		c2.1,1.904,5.511,4.536,14.238,4.536c8.049,0,18.42-3.093,18.42-14.238c0-7.474-4.592-11.147-10.691-12.587l-13.438-3.083
		c-2.76-0.66-5.577-1.968-5.577-5.97c0-7.146,6.754-8.26,10.75-8.26c5.314,0,11.351,2.296,11.671,9.574H380.057L380.057,25.99z
		 M401.304,29.792V25.01h-5.5v-9.576h-5.779v9.576h-4.654v4.783h4.654v22.62c0,4.13,1.249,7.353,6.956,7.353
		c0.588,0,2.229-0.258,4.324-0.467v-4.522h-2.033c-1.176,0-3.467,0-3.467-2.691V29.792H401.304L401.304,29.792z M412.057,35.432
		c0.392-2.626,1.311-6.623,7.874-6.623c5.438,0,8.059,1.966,8.059,5.573c0,3.411-1.63,3.939-3.013,4.066l-9.504,1.179
		c-9.577,1.184-10.433,7.869-10.433,10.755c0,5.897,4.458,9.909,10.763,9.909c6.687,0,10.154-3.158,12.383-5.585
		c0.196,2.626,0.991,5.258,6.099,5.258c1.321,0,2.167-0.392,3.147-0.666v-4.197c-0.65,0.131-1.373,0.266-1.899,0.266
		c-1.176,0-1.899-0.591-1.899-2.036V33.595c0-8.784-9.968-9.574-12.724-9.574c-8.462,0-13.9,3.217-14.158,11.411H412.057
		L412.057,35.432z M427.855,47.428c0,4.595-5.242,8.067-10.618,8.067c-4.324,0-6.233-2.229-6.233-5.967
		c0-4.326,4.53-5.18,7.347-5.572c7.151-0.921,8.596-1.445,9.504-2.162V47.428L427.855,47.428z M455.986,29.792V25.01h-5.5v-9.576
		h-5.769v9.576h-4.654v4.783h4.654v22.62c0,4.13,1.238,7.353,6.945,7.353c0.588,0,2.229-0.258,4.324-0.467v-4.522h-2.023
		c-1.187,0-3.478,0-3.478-2.691V29.792H455.986L455.986,29.792z M467.534,25.01h-5.779v34.299h5.779V25.01L467.534,25.01z
		 M467.534,18.777v-6.553h-5.779v6.553H467.534L467.534,18.777z M501.236,34.777c0-1.703-0.856-10.755-13.116-10.755
		c-6.749,0-12.982,3.408-12.982,10.949c0,4.721,3.147,7.149,7.936,8.331l6.687,1.636c4.922,1.249,6.821,2.164,6.821,4.922
		c0,3.803-3.746,5.438-7.874,5.438c-8.122,0-8.916-4.324-9.112-7.015h-5.583c0.206,4.13,1.187,12.009,14.767,12.009
		c7.729,0,13.57-4.272,13.57-11.351c0-4.657-2.498-7.28-9.639-9.05l-5.768-1.442c-4.458-1.115-6.233-1.77-6.233-4.592
		c0-4.259,5.056-4.848,6.821-4.848c7.275,0,8.06,3.602,8.122,5.769H501.236L501.236,34.777z M521.565,29.792V25.01h-5.511v-9.576
		h-5.768v9.576h-4.654v4.783h4.654v22.62c0,4.13,1.249,7.353,6.955,7.353c0.589,0,2.219-0.258,4.324-0.467v-4.522h-2.043
		c-1.177,0-3.468,0-3.468-2.691V29.792H521.565L521.565,29.792z M533.103,25.01h-5.769v34.299h5.769V25.01L533.103,25.01z
		 M533.103,18.777v-6.553h-5.769v6.553H533.103L533.103,18.777z M568.776,36.547c-0.464-5.97-3.88-12.525-12.857-12.525
		c-11.331,0-16.449,8.459-16.449,19.083c0,9.899,5.696,17.187,15.334,17.187c10.03,0,13.374-7.68,13.973-13.124h-5.583
		c-0.98,5.245-4.323,8.129-8.193,8.129c-7.936,0-9.37-7.278-9.37-13.178c0-6.099,2.291-12.915,9.433-12.915
		c4.859,0,7.419,2.755,8.131,7.342H568.776L568.776,36.547z M599.59,34.777c0-1.703-0.856-10.755-13.116-10.755
		c-6.748,0-12.981,3.408-12.981,10.949c0,4.721,3.147,7.149,7.936,8.331l6.688,1.636c4.922,1.249,6.82,2.164,6.82,4.922
		c0,3.803-3.735,5.438-7.873,5.438c-8.121,0-8.916-4.324-9.112-7.015h-5.563c0.187,4.13,1.177,12.009,14.747,12.009
		c7.739,0,13.569-4.272,13.569-11.351c0-4.657-2.486-7.28-9.628-9.05l-5.778-1.442c-4.458-1.115-6.233-1.77-6.233-4.592
		c0-4.259,5.057-4.848,6.821-4.848c7.275,0,8.069,3.602,8.132,5.769H599.59L599.59,34.777z M384.917,88.536
		c-0.918-7.869-7.213-15.407-19.349-15.407c-13.702,0-21.962,10.03-21.962,24.519c0,18.096,10.49,25.066,21.178,25.066
		c3.539,0,17.966-0.795,20.587-18.575h-6.161c-2.167,10.949-9.308,12.925-13.436,12.925c-11.679,0-15.61-8.528-15.61-19.606
		c0-12.394,6.888-18.688,15.404-18.688c4.53,0,11.413,1.507,13.178,9.768H384.917L384.917,88.536z M397.445,97.585
		c0.381-2.621,1.311-6.625,7.863-6.625c5.438,0,8.059,1.971,8.059,5.583c0,3.405-1.641,3.921-3.013,4.056l-9.504,1.182
		c-9.577,1.181-10.433,7.863-10.433,10.752c0,5.897,4.458,9.912,10.763,9.912c6.687,0,10.165-3.158,12.394-5.583
		c0.186,2.621,0.98,5.253,6.088,5.253c1.311,0,2.167-0.387,3.147-0.666v-4.194c-0.65,0.129-1.373,0.258-1.899,0.258
		c-1.176,0-1.898-0.588-1.898-2.022V95.749c0-8.787-9.969-9.576-12.724-9.576c-8.462,0-13.9,3.22-14.158,11.413H397.445
		L397.445,97.585z M413.244,109.577c0,4.598-5.252,8.069-10.629,8.069c-4.324,0-6.223-2.224-6.223-5.964
		c0-4.324,4.52-5.181,7.337-5.573c7.151-0.923,8.596-1.444,9.515-2.167V109.577L413.244,109.577z M456.708,98.112
		c0-9.772-6.687-11.939-11.991-11.939c-5.902,0-9.112,4.004-10.36,5.841h-0.134v-4.86h-5.449v34.302h5.769v-18.688
		c0-9.318,5.779-11.408,9.061-11.408c5.634,0,7.337,3.008,7.337,8.982v21.114h5.769V98.112L456.708,98.112z M470.351,97.585
		c0.392-2.621,1.311-6.625,7.874-6.625c5.438,0,8.06,1.971,8.06,5.583c0,3.405-1.641,3.921-3.013,4.056l-9.515,1.182
		c-9.566,1.181-10.422,7.863-10.422,10.752c0,5.897,4.458,9.912,10.763,9.912c6.687,0,10.154-3.158,12.383-5.583
		c0.196,2.621,0.98,5.253,6.099,5.253c1.311,0,2.167-0.387,3.137-0.666v-4.194c-0.65,0.129-1.362,0.258-1.898,0.258
		c-1.176,0-1.899-0.588-1.899-2.022V95.749c0-8.787-9.958-9.576-12.713-9.576c-8.462,0-13.9,3.22-14.168,11.413H470.351
		L470.351,97.585z M486.149,109.577c0,4.598-5.242,8.069-10.619,8.069c-4.334,0-6.233-2.224-6.233-5.964
		c0-4.324,4.53-5.181,7.348-5.573c7.141-0.923,8.596-1.444,9.504-2.167V109.577L486.149,109.577z M530.151,74.377h-5.769v17.171
		l-0.124,0.465c-1.394-1.971-4.004-5.841-10.236-5.841c-9.112,0-14.292,7.481-14.292,17.109c0,8.204,3.405,19.163,15.077,19.163
		c3.343,0,7.274-1.058,9.772-5.717h0.134v4.727h5.438V74.377L530.151,74.377z M505.694,104.2c0-4.385,0.454-12.842,9.37-12.842
		c8.338,0,9.256,8.982,9.256,14.55c0,9.117-5.706,11.543-9.38,11.543C508.646,117.451,505.694,111.749,505.694,104.2L505.694,104.2z
		 M543.267,97.585c0.393-2.621,1.301-6.625,7.874-6.625c5.438,0,8.06,1.971,8.06,5.583c0,3.405-1.641,3.921-3.023,4.056
		l-9.494,1.182c-9.587,1.181-10.433,7.863-10.433,10.752c0,5.897,4.458,9.912,10.753,9.912c6.697,0,10.154-3.158,12.394-5.583
		c0.195,2.621,0.98,5.253,6.099,5.253c1.3,0,2.156-0.387,3.147-0.666v-4.194c-0.671,0.129-1.373,0.258-1.909,0.258
		c-1.177,0-1.899-0.588-1.899-2.022V95.749c0-8.787-9.958-9.576-12.713-9.576c-8.462,0-13.91,3.22-14.169,11.413H543.267
		L543.267,97.585z M559.076,109.577c0,4.598-5.253,8.069-10.629,8.069c-4.324,0-6.223-2.224-6.223-5.964
		c0-4.324,4.52-5.181,7.337-5.573c7.142-0.923,8.597-1.444,9.515-2.167V109.577z"/>
</g>
</svg>
