<?xml version="1.0" encoding="utf-8"?>
<!-- Generator: Adobe Illustrator 16.0.3, SVG Export Plug-In . SVG Version: 6.00 Build 0)  -->
<!DOCTYPE svg PUBLIC "-//W3C//DTD SVG 1.1//EN" "http://www.w3.org/Graphics/SVG/1.1/DTD/svg11.dtd">
<svg version="1.1" id="Layer_1" xmlns="http://www.w3.org/2000/svg" xmlns:xlink="http://www.w3.org/1999/xlink" x="0px" y="0px"
	 height="100%" width="100%" viewBox="0 0 1007.334 137.268" enable-background="new 0 0 1007.334 137.268" preserveAspectRatio="xMinYMin meet"
	 xml:space="preserve">
<g>
	<g>
		<path fill-rule="evenodd" clip-rule="evenodd" fill="#ED1C24" d="M119.289,115.954c0,0-0.503-18.9-0.503-20.887
			c0-1.991,1.514-2.486,3.527-1.991c2.017,0.495,19.663,3.978,19.663,3.978s-1.512-3.978-2.521-6.465
			c-1.006-2.977,0.506-3.478,1.009-3.973c0.503-0.506,19.667-16.914,19.667-16.914l-3.026-1.491
			c-2.018-0.993-1.509-2.484-1.009-3.48c0-0.996,3.026-11.935,3.026-11.935s-8.07,1.489-10.084,1.989
			c-1.515,0-2.018-0.5-2.521-1.494c-0.506-0.994-2.523-5.967-2.523-5.967s-10.082,10.941-10.082,11.437
			c-2.018,1.494-4.037,0.5-3.529-1.491c0-1.989,5.041-24.367,5.041-24.367s-5.549,3.48-7.058,4.476
			c-2.018,0.996-2.521,0.996-3.529-0.996c-1.009-1.491-7.562-14.919-7.562-14.919l0,0c0,0-7.061,13.428-7.564,14.919
			c-1.012,1.992-2.018,1.992-4.038,0.996c-1.509-0.996-7.056-4.476-7.056-4.476s5.044,22.377,5.044,24.367
			c0.503,1.992-1.515,2.985-3.026,1.491c-0.506-0.496-10.59-11.437-10.59-11.437s-2.017,4.974-2.521,5.967
			c-0.503,0.993-1.006,1.494-2.518,1.494c-2.02-0.5-10.59-1.989-10.59-1.989s3.526,10.938,4.035,11.935
			c0,0.996,0.503,2.487-1.514,3.48l-3.024,1.491c0,0,19.158,16.408,19.661,16.914c0.506,0.495,2.018,0.996,1.009,3.973
			c-1.009,2.487-2.521,6.465-2.521,6.465s18.152-3.482,19.664-3.978c2.02-0.495,3.529,0,3.529,1.991
			c0,1.986-0.503,20.887-0.503,20.887H119.289L119.289,115.954z"/>
		<polygon fill-rule="evenodd" clip-rule="evenodd" fill="#ED1C24" points="61.73,124.416 61.73,13.013 5.778,13.013 5.778,124.416 
			61.73,124.416 		"/>
		<polygon fill-rule="evenodd" clip-rule="evenodd" fill="#ED1C24" points="228.347,124.416 228.347,13.013 172.395,13.013 
			172.395,124.416 228.347,124.416 		"/>
	</g>
	<path fill-rule="evenodd" clip-rule="evenodd" d="M373.651,27.692c-0.258-5.183-1.898-15.015-18.348-15.015
		c-11.413,0-16.212,7.213-16.212,14.556c0,8.199,6.956,10.363,10.041,11.08l9.644,2.232c7.724,1.832,10.03,3.405,10.03,8.325
		c0,6.754-7.74,7.933-12.332,7.933c-6.037,0-12.987-2.489-12.987-11.013h-5.959c0,4.394,0.79,8.325,4.783,11.932
		c2.09,1.904,5.505,4.536,14.23,4.536c8.064,0,18.43-3.093,18.43-14.238c0-7.474-4.602-11.147-10.69-12.587l-13.441-3.083
		c-2.75-0.661-5.583-1.968-5.583-5.97c0-7.146,6.759-8.261,10.753-8.261c5.309,0,11.346,2.296,11.666,9.574H373.651L373.651,27.692z
		 M394.898,31.495v-4.783h-5.505v-9.576h-5.779v9.576h-4.649v4.783h4.649v22.62c0,4.13,1.254,7.353,6.956,7.353
		c0.593,0,2.234-0.258,4.329-0.467v-4.522h-2.027c-1.187,0-3.478,0-3.478-2.691V31.495H394.898L394.898,31.495z M405.651,37.134
		c0.387-2.626,1.306-6.623,7.869-6.623c5.443,0,8.07,1.966,8.07,5.572c0,3.411-1.641,3.939-3.029,4.066l-9.499,1.179
		c-9.577,1.184-10.428,7.869-10.428,10.755c0,5.897,4.458,9.909,10.753,9.909c6.692,0,10.169-3.158,12.394-5.585
		c0.191,2.626,0.985,5.258,6.099,5.258c1.305,0,2.162-0.392,3.142-0.666v-4.198c-0.645,0.132-1.373,0.266-1.898,0.266
		c-1.177,0-1.899-0.591-1.899-2.036V35.297c0-8.784-9.969-9.574-12.719-9.574c-8.467,0-13.905,3.217-14.168,11.411H405.651
		L405.651,37.134z M421.461,49.13c0,4.595-5.253,8.067-10.629,8.067c-4.324,0-6.228-2.229-6.228-5.967
		c0-4.326,4.52-5.18,7.342-5.572c7.146-0.921,8.596-1.445,9.515-2.162V49.13L421.461,49.13z M449.581,31.495v-4.783h-5.505v-9.576
		h-5.763v9.576h-4.67v4.783h4.67v22.62c0,4.13,1.238,7.353,6.939,7.353c0.593,0,2.234-0.258,4.329-0.467v-4.522h-2.033
		c-1.171,0-3.472,0-3.472-2.691V31.495H449.581L449.581,31.495z M461.123,26.711h-5.763v34.299h5.763V26.711L461.123,26.711z
		 M461.123,20.479v-6.553h-5.763v6.553H461.123L461.123,20.479z M494.832,36.479c0-1.703-0.856-10.755-13.121-10.755
		c-6.749,0-12.977,3.408-12.977,10.949c0,4.721,3.142,7.149,7.936,8.331l6.682,1.635c4.922,1.249,6.821,2.165,6.821,4.922
		c0,3.803-3.746,5.438-7.869,5.438c-8.126,0-8.916-4.324-9.112-7.015h-5.583c0.207,4.13,1.192,12.009,14.757,12.009
		c7.734,0,13.57-4.272,13.57-11.352c0-4.656-2.492-7.28-9.638-9.05l-5.763-1.442c-4.458-1.114-6.228-1.77-6.228-4.592
		c0-4.259,5.051-4.848,6.821-4.848c7.275,0,8.064,3.602,8.131,5.769H494.832L494.832,36.479z M515.155,31.495v-4.783h-5.5v-9.576
		h-5.779v9.576h-4.654v4.783h4.654v22.62c0,4.13,1.249,7.353,6.95,7.353c0.599,0,2.225-0.258,4.329-0.467v-4.522h-2.043
		c-1.177,0-3.457,0-3.457-2.691V31.495H515.155L515.155,31.495z M526.697,26.711h-5.778v34.299h5.778V26.711L526.697,26.711z
		 M526.697,20.479v-6.553h-5.778v6.553H526.697L526.697,20.479z M563.476,26.711h-5.433v4.85h-0.134
		c-1.378-1.966-4.005-5.838-10.232-5.838c-9.117,0-14.297,7.476-14.297,17.117c0,8.193,3.41,19.153,15.081,19.153
		c4.587,0,7.611-2.172,9.112-4.6h0.134v17.19h5.769V26.711L563.476,26.711z M557.971,45.459c0,9.114-5.707,11.54-9.381,11.54
		c-6.294,0-9.24-5.704-9.24-13.242c0-4.394,0.454-12.851,9.37-12.851C557.058,30.906,557.971,39.887,557.971,45.459L557.971,45.459z
		 M599.604,61V26.711h-5.764v18.879c0,4.982-2.172,11.408-9.447,11.408c-3.735,0-6.62-1.899-6.62-7.536V26.711h-5.778v24.65
		c0,8.196,6.099,10.632,11.154,10.632c5.506,0,8.457-2.108,10.882-6.109l0.13,0.134V61H599.604L599.604,61z M631.604,50.248
		c-0.19,2.559-3.4,6.751-8.854,6.751c-6.62,0-9.964-4.128-9.964-11.274h25.045c0-12.133-4.845-20.001-14.746-20.001
		c-11.347,0-16.465,8.459-16.465,19.083c0,9.899,5.712,17.187,15.34,17.187c5.521,0,7.739-1.318,9.318-2.368
		c4.329-2.884,5.897-7.74,6.099-9.378H631.604L631.604,50.248z M612.787,41.133c0-5.309,4.2-10.227,9.51-10.227
		c7.017,0,9.24,4.917,9.581,10.227H612.787L612.787,41.133z M378.512,90.238c-0.918-7.868-7.213-15.407-19.349-15.407
		c-13.699,0-21.97,10.03-21.97,24.52c0,18.095,10.495,25.065,21.18,25.065c3.54,0,17.966-0.795,20.592-18.575H372.8
		c-2.162,10.949-9.308,12.926-13.441,12.926c-11.671,0-15.598-8.529-15.598-19.607c0-12.394,6.873-18.688,15.402-18.688
		c4.52,0,11.413,1.507,13.183,9.768H378.512L378.512,90.238z M391.034,99.288c0.387-2.621,1.305-6.625,7.858-6.625
		c5.454,0,8.065,1.971,8.065,5.583c0,3.405-1.625,3.921-3.014,4.056l-9.509,1.182c-9.566,1.182-10.417,7.863-10.417,10.753
		c0,5.897,4.458,9.911,10.748,9.911c6.687,0,10.165-3.157,12.398-5.583c0.191,2.621,0.986,5.253,6.083,5.253
		c1.321,0,2.177-0.387,3.158-0.665v-4.195c-0.661,0.129-1.383,0.258-1.899,0.258c-1.176,0-1.899-0.588-1.899-2.022V97.451
		c0-8.787-9.963-9.576-12.718-9.576c-8.467,0-13.905,3.22-14.168,11.413H391.034L391.034,99.288z M406.828,111.279
		c0,4.598-5.247,8.07-10.613,8.07c-4.329,0-6.243-2.225-6.243-5.965c0-4.324,4.53-5.181,7.358-5.572
		c7.146-0.924,8.58-1.445,9.499-2.167V111.279L406.828,111.279z M450.303,99.814c0-9.772-6.692-11.939-11.991-11.939
		c-5.908,0-9.128,4.004-10.366,5.841h-0.129v-4.86h-5.443v34.302h5.763v-18.688c0-9.318,5.779-11.408,9.05-11.408
		c5.645,0,7.342,3.008,7.342,8.983v21.113h5.773V99.814L450.303,99.814z M463.94,99.288c0.397-2.621,1.316-6.625,7.869-6.625
		c5.443,0,8.07,1.971,8.07,5.583c0,3.405-1.646,3.921-3.019,4.056l-9.509,1.182c-9.577,1.182-10.417,7.863-10.417,10.753
		c0,5.897,4.463,9.911,10.753,9.911c6.682,0,10.159-3.157,12.383-5.583c0.206,2.621,0.98,5.253,6.099,5.253
		c1.321,0,2.172-0.387,3.152-0.665v-4.195c-0.66,0.129-1.383,0.258-1.904,0.258c-1.182,0-1.904-0.588-1.904-2.022V97.451
		c0-8.787-9.969-9.576-12.719-9.576c-8.457,0-13.895,3.22-14.168,11.413H463.94L463.94,99.288z M479.745,111.279
		c0,4.598-5.248,8.07-10.624,8.07c-4.329,0-6.228-2.225-6.228-5.965c0-4.324,4.52-5.181,7.337-5.572
		c7.151-0.924,8.596-1.445,9.515-2.167V111.279L479.745,111.279z M523.736,76.08h-5.764v17.172l-0.129,0.464
		c-1.383-1.971-4.004-5.841-10.237-5.841c-9.111,0-14.292,7.481-14.292,17.109c0,8.204,3.411,19.163,15.082,19.163
		c3.349,0,7.28-1.058,9.772-5.717h0.129v4.727h5.438V76.08L523.736,76.08z M499.29,105.903c0-4.386,0.449-12.843,9.365-12.843
		c8.338,0,9.257,8.983,9.257,14.551c0,9.117-5.712,11.542-9.386,11.542C502.236,119.153,499.29,113.451,499.29,105.903
		L499.29,105.903z M536.857,99.288c0.387-2.621,1.305-6.625,7.873-6.625c5.438,0,8.06,1.971,8.06,5.583
		c0,3.405-1.641,3.921-3.023,4.056l-9.494,1.182c-9.581,1.182-10.433,7.863-10.433,10.753c0,5.897,4.458,9.911,10.753,9.911
		c6.692,0,10.17-3.157,12.394-5.583c0.191,2.621,0.98,5.253,6.099,5.253c1.306,0,2.157-0.387,3.143-0.665v-4.195
		c-0.66,0.129-1.367,0.258-1.904,0.258c-1.176,0-1.898-0.588-1.898-2.022V97.451c0-8.787-9.964-9.576-12.719-9.576
		c-8.462,0-13.9,3.22-14.158,11.413H536.857L536.857,99.288z M552.661,111.279c0,4.598-5.247,8.07-10.618,8.07
		c-4.334,0-6.233-2.225-6.233-5.965c0-4.324,4.525-5.181,7.343-5.572c7.141-0.924,8.591-1.445,9.509-2.167V111.279z"/>
	<path fill-rule="evenodd" clip-rule="evenodd" d="M783.129,27.692c-0.258-5.183-1.898-15.015-18.358-15.015
		c-11.402,0-16.19,7.213-16.19,14.556c0,8.199,6.944,10.363,10.03,11.08l9.639,2.232c7.739,1.832,10.03,3.405,10.03,8.325
		c0,6.754-7.74,7.933-12.321,7.933c-6.037,0-12.982-2.489-12.982-11.013h-5.975c0,4.394,0.795,8.325,4.788,11.932
		c2.105,1.904,5.511,4.536,14.241,4.536c8.049,0,18.42-3.093,18.42-14.238c0-7.474-4.593-11.147-10.691-12.587l-13.436-3.083
		c-2.766-0.661-5.583-1.968-5.583-5.97c0-7.146,6.76-8.261,10.753-8.261c5.314,0,11.352,2.296,11.671,9.574H783.129L783.129,27.692z
		 M804.377,31.495v-4.783h-5.5v-9.576h-5.779v9.576h-4.654v4.783h4.654v22.62c0,4.13,1.249,7.353,6.955,7.353
		c0.588,0,2.229-0.258,4.324-0.467v-4.522h-2.033c-1.177,0-3.467,0-3.467-2.691V31.495H804.377L804.377,31.495z M815.13,37.134
		c0.392-2.626,1.311-6.623,7.873-6.623c5.438,0,8.06,1.966,8.06,5.572c0,3.411-1.63,3.939-3.013,4.066l-9.505,1.179
		c-9.576,1.184-10.433,7.869-10.433,10.755c0,5.897,4.458,9.909,10.763,9.909c6.688,0,10.154-3.158,12.384-5.585
		c0.196,2.626,0.99,5.258,6.099,5.258c1.321,0,2.167-0.392,3.147-0.666v-4.198c-0.65,0.132-1.372,0.266-1.898,0.266
		c-1.177,0-1.899-0.591-1.899-2.036V35.297c0-8.784-9.968-9.574-12.724-9.574c-8.462,0-13.9,3.217-14.158,11.411H815.13
		L815.13,37.134z M830.929,49.13c0,4.595-5.242,8.067-10.619,8.067c-4.323,0-6.232-2.229-6.232-5.967c0-4.326,4.53-5.18,7.348-5.572
		c7.15-0.921,8.596-1.445,9.504-2.162V49.13L830.929,49.13z M859.06,31.495v-4.783h-5.501v-9.576h-5.769v9.576h-4.653v4.783h4.653
		v22.62c0,4.13,1.238,7.353,6.945,7.353c0.588,0,2.229-0.258,4.324-0.467v-4.522h-2.023c-1.187,0-3.478,0-3.478-2.691V31.495H859.06
		L859.06,31.495z M870.606,26.711h-5.778v34.299h5.778V26.711L870.606,26.711z M870.606,20.479v-6.553h-5.778v6.553H870.606
		L870.606,20.479z M904.31,36.479c0-1.703-0.856-10.755-13.116-10.755c-6.749,0-12.981,3.408-12.981,10.949
		c0,4.721,3.147,7.149,7.936,8.331l6.687,1.635c4.923,1.249,6.821,2.165,6.821,4.922c0,3.803-3.746,5.438-7.873,5.438
		c-8.122,0-8.916-4.324-9.112-7.015h-5.583c0.206,4.13,1.187,12.009,14.768,12.009c7.729,0,13.569-4.272,13.569-11.352
		c0-4.656-2.497-7.28-9.638-9.05l-5.769-1.442c-4.458-1.114-6.233-1.77-6.233-4.592c0-4.259,5.057-4.848,6.821-4.848
		c7.275,0,8.06,3.602,8.121,5.769H904.31L904.31,36.479z M924.639,31.495v-4.783h-5.511v-9.576h-5.769v9.576h-4.653v4.783h4.653
		v22.62c0,4.13,1.249,7.353,6.955,7.353c0.589,0,2.219-0.258,4.324-0.467v-4.522h-2.043c-1.177,0-3.468,0-3.468-2.691V31.495
		H924.639L924.639,31.495z M936.176,26.711h-5.769v34.299h5.769V26.711L936.176,26.711z M936.176,20.479v-6.553h-5.769v6.553
		H936.176L936.176,20.479z M971.85,38.249c-0.464-5.97-3.88-12.525-12.857-12.525c-11.331,0-16.449,8.459-16.449,19.083
		c0,9.899,5.696,17.187,15.334,17.187c10.031,0,13.374-7.68,13.973-13.124h-5.582c-0.98,5.245-4.324,8.129-8.194,8.129
		c-7.936,0-9.37-7.278-9.37-13.178c0-6.099,2.291-12.915,9.433-12.915c4.86,0,7.419,2.755,8.132,7.342H971.85L971.85,38.249z
		 M1002.664,36.479c0-1.703-0.857-10.755-13.116-10.755c-6.749,0-12.981,3.408-12.981,10.949c0,4.721,3.146,7.149,7.936,8.331
		l6.687,1.635c4.922,1.249,6.821,2.165,6.821,4.922c0,3.803-3.736,5.438-7.874,5.438c-8.121,0-8.916-4.324-9.112-7.015h-5.562
		c0.186,4.13,1.176,12.009,14.746,12.009c7.739,0,13.57-4.272,13.57-11.352c0-4.656-2.487-7.28-9.628-9.05l-5.779-1.442
		c-4.458-1.114-6.232-1.77-6.232-4.592c0-4.259,5.057-4.848,6.82-4.848c7.275,0,8.07,3.602,8.132,5.769H1002.664L1002.664,36.479z
		 M787.989,90.238c-0.918-7.868-7.213-15.407-19.349-15.407c-13.704,0-21.96,10.03-21.96,24.52
		c0,18.095,10.485,25.065,21.176,25.065c3.539,0,17.966-0.795,20.587-18.575h-6.16c-2.167,10.949-9.309,12.926-13.437,12.926
		c-11.681,0-15.613-8.529-15.613-19.607c0-12.394,6.894-18.688,15.407-18.688c4.53,0,11.413,1.507,13.178,9.768H787.989
		L787.989,90.238z M800.518,99.288c0.382-2.621,1.311-6.625,7.863-6.625c5.438,0,8.06,1.971,8.06,5.583
		c0,3.405-1.642,3.921-3.014,4.056l-9.504,1.182c-9.576,1.182-10.433,7.863-10.433,10.753c0,5.897,4.457,9.911,10.763,9.911
		c6.687,0,10.164-3.157,12.394-5.583c0.186,2.621,0.98,5.253,6.089,5.253c1.311,0,2.167-0.387,3.146-0.665v-4.195
		c-0.649,0.129-1.372,0.258-1.898,0.258c-1.176,0-1.898-0.588-1.898-2.022V97.451c0-8.787-9.969-9.576-12.724-9.576
		c-8.462,0-13.9,3.22-14.158,11.413H800.518L800.518,99.288z M816.316,111.279c0,4.598-5.253,8.07-10.629,8.07
		c-4.324,0-6.223-2.225-6.223-5.965c0-4.324,4.52-5.181,7.337-5.572c7.151-0.924,8.596-1.445,9.515-2.167V111.279L816.316,111.279z
		 M859.781,99.814c0-9.772-6.687-11.939-11.991-11.939c-5.902,0-9.111,4.004-10.36,5.841h-0.134v-4.86h-5.449v34.302h5.769v-18.688
		c0-9.318,5.779-11.408,9.061-11.408c5.635,0,7.337,3.008,7.337,8.983v21.113h5.769V99.814L859.781,99.814z M873.424,99.288
		c0.392-2.621,1.311-6.625,7.874-6.625c5.438,0,8.059,1.971,8.059,5.583c0,3.405-1.641,3.921-3.013,4.056l-9.515,1.182
		c-9.566,1.182-10.423,7.863-10.423,10.753c0,5.897,4.458,9.911,10.764,9.911c6.687,0,10.154-3.157,12.383-5.583
		c0.196,2.621,0.98,5.253,6.099,5.253c1.311,0,2.167-0.387,3.138-0.665v-4.195c-0.65,0.129-1.362,0.258-1.899,0.258
		c-1.176,0-1.898-0.588-1.898-2.022V97.451c0-8.787-9.958-9.576-12.714-9.576c-8.462,0-13.899,3.22-14.168,11.413H873.424
		L873.424,99.288z M889.223,111.279c0,4.598-5.242,8.07-10.618,8.07c-4.335,0-6.233-2.225-6.233-5.965
		c0-4.324,4.53-5.181,7.348-5.572c7.141-0.924,8.596-1.445,9.504-2.167V111.279L889.223,111.279z M933.225,76.08h-5.769v17.172
		l-0.124,0.464c-1.393-1.971-4.004-5.841-10.236-5.841c-9.112,0-14.293,7.481-14.293,17.109c0,8.204,3.405,19.163,15.077,19.163
		c3.343,0,7.274-1.058,9.772-5.717h0.134v4.727h5.438V76.08L933.225,76.08z M908.768,105.903c0-4.386,0.454-12.843,9.37-12.843
		c8.338,0,9.257,8.983,9.257,14.551c0,9.117-5.707,11.542-9.381,11.542C911.719,119.153,908.768,113.451,908.768,105.903
		L908.768,105.903z M946.341,99.288c0.392-2.621,1.3-6.625,7.873-6.625c5.438,0,8.06,1.971,8.06,5.583
		c0,3.405-1.641,3.921-3.023,4.056l-9.494,1.182c-9.586,1.182-10.433,7.863-10.433,10.753c0,5.897,4.458,9.911,10.753,9.911
		c6.697,0,10.154-3.157,12.394-5.583c0.196,2.621,0.98,5.253,6.099,5.253c1.301,0,2.156-0.387,3.147-0.665v-4.195
		c-0.671,0.129-1.372,0.258-1.909,0.258c-1.177,0-1.898-0.588-1.898-2.022V97.451c0-8.787-9.959-9.576-12.714-9.576
		c-8.462,0-13.91,3.22-14.169,11.413H946.341L946.341,99.288z M962.149,111.279c0,4.598-5.252,8.07-10.629,8.07
		c-4.323,0-6.223-2.225-6.223-5.965c0-4.324,4.521-5.181,7.337-5.572c7.142-0.924,8.597-1.445,9.515-2.167V111.279z"/>
</g>
</svg>
